# xmcd
#
# Track frame offsets: 
#        150
#        12541
#        23998
#        38276
#        50389
#        65725
#        81876
#        94169
#        114530
#        132433
#        149370
#        162300
#
# Disc length: 2372 seconds
#
# Revision: 0
# Processed by: cddbd v1.5.2PL0 Copyright (c) Steve Scherf et al.
# Submitted via: ExactAudioCopy v1.0b1
#
DISCID=a109420c
DTITLE=Daryle Singletary - That's Why I Sing This Way
DYEAR=2002
DGENRE=Country
TTITLE0=Love's Gonna Live Here Again
TTITLE1=Walk Through This World With Me
TTITLE2=I'd Love To Lay You Down
TTITLE3=A - 11
TTITLE4=Long Black Veil
TTITLE5=Kay
TTITLE6=That's Why I Sing This Way
TTITLE7=I Never Go Around Mirrors
TTITLE8=Dim Lights, Thick Smoke
TTITLE9=Make Up And Faded Blue Jeans
TTITLE10=After The Fire Is Gone
TTITLE11=Old Violin
EXTD=
EXTT0=
EXTT1=
EXTT2=
EXTT3=
EXTT4=
EXTT5=
EXTT6=
EXTT7=
EXTT8=
EXTT9=
EXTT10=
EXTT11=
PLAYORDER=
